<svg width="550" height="200" viewBox="0 0 550 200" fill="none" xmlns="http://www.w3.org/2000/svg">
<path d="M183.57 141V89.8125H201.5C207.711 89.8125 212.422 91.0078 215.633 93.3984C218.844 95.7656 220.449 99.2461 220.449 103.84C220.449 106.348 219.805 108.562 218.516 110.484C217.227 112.383 215.434 113.777 213.137 114.668C215.762 115.324 217.824 116.648 219.324 118.641C220.848 120.633 221.609 123.07 221.609 125.953C221.609 130.875 220.039 134.602 216.898 137.133C213.758 139.664 209.281 140.953 203.469 141H183.57ZM194.117 118.711V132.527H203.152C205.637 132.527 207.57 131.941 208.953 130.77C210.359 129.574 211.062 127.934 211.062 125.848C211.062 121.16 208.637 118.781 203.785 118.711H194.117ZM194.117 111.258H201.922C207.242 111.164 209.902 109.043 209.902 104.895C209.902 102.574 209.223 100.91 207.863 99.9023C206.527 98.8711 204.406 98.3555 201.5 98.3555H194.117V111.258ZM268.297 89.8125V123.527C268.297 129.129 266.539 133.559 263.023 136.816C259.531 140.074 254.75 141.703 248.68 141.703C242.703 141.703 237.957 140.121 234.441 136.957C230.926 133.793 229.133 129.445 229.062 123.914V89.8125H239.609V123.598C239.609 126.949 240.406 129.398 242 130.945C243.617 132.469 245.844 133.23 248.68 133.23C254.609 133.23 257.621 130.113 257.715 123.879V89.8125H268.297ZM303.488 127.57C303.488 125.578 302.785 124.055 301.379 123C299.973 121.922 297.441 120.797 293.785 119.625C290.129 118.43 287.234 117.258 285.102 116.109C279.289 112.969 276.383 108.738 276.383 103.418C276.383 100.652 277.156 98.1914 278.703 96.0352C280.273 93.8555 282.512 92.1562 285.418 90.9375C288.348 89.7188 291.629 89.1094 295.262 89.1094C298.918 89.1094 302.176 89.7773 305.035 91.1133C307.895 92.4258 310.109 94.2891 311.68 96.7031C313.273 99.1172 314.07 101.859 314.07 104.93H303.523C303.523 102.586 302.785 100.77 301.309 99.4805C299.832 98.168 297.758 97.5117 295.086 97.5117C292.508 97.5117 290.504 98.0625 289.074 99.1641C287.645 100.242 286.93 101.672 286.93 103.453C286.93 105.117 287.762 106.512 289.426 107.637C291.113 108.762 293.586 109.816 296.844 110.801C302.844 112.605 307.215 114.844 309.957 117.516C312.699 120.188 314.07 123.516 314.07 127.5C314.07 131.93 312.395 135.41 309.043 137.941C305.691 140.449 301.18 141.703 295.508 141.703C291.57 141.703 287.984 140.988 284.75 139.559C281.516 138.105 279.043 136.125 277.332 133.617C275.645 131.109 274.801 128.203 274.801 124.898H285.383C285.383 130.547 288.758 133.371 295.508 133.371C298.016 133.371 299.973 132.867 301.379 131.859C302.785 130.828 303.488 129.398 303.488 127.57ZM338.891 112.875L349.543 89.8125H361.074L344.27 122.438V141H333.547V122.438L316.742 89.8125H328.309L338.891 112.875ZM373.602 90.2812L373.789 98.5312C375.664 95.4688 378.008 93.1719 380.82 91.6406C383.633 90.1094 386.758 89.3438 390.195 89.3438C398.195 89.3438 403.273 92.625 405.43 99.1875C407.242 96.0312 409.664 93.6094 412.695 91.9219C415.727 90.2031 419.07 89.3438 422.727 89.3438C433.602 89.3438 439.148 95.2812 439.367 107.156V141H433.742V107.578C433.711 103.047 432.727 99.6875 430.789 97.5C428.883 95.3125 425.758 94.2188 421.414 94.2188C417.383 94.2812 413.977 95.5938 411.195 98.1562C408.414 100.688 406.867 103.781 406.555 107.438V141H400.93V107.156C400.898 102.812 399.867 99.5781 397.836 97.4531C395.836 95.2969 392.742 94.2188 388.555 94.2188C385.023 94.2188 381.992 95.2344 379.461 97.2656C376.93 99.2656 375.055 102.25 373.836 106.219V141H368.211V90.2812H373.602ZM473.258 141.938C468.945 141.938 465.039 140.875 461.539 138.75C458.07 136.625 455.367 133.672 453.43 129.891C451.492 126.078 450.523 121.812 450.523 117.094V115.078C450.523 110.203 451.461 105.812 453.336 101.906C455.242 98 457.883 94.9375 461.258 92.7188C464.633 90.4688 468.289 89.3438 472.227 89.3438C478.383 89.3438 483.258 91.4531 486.852 95.6719C490.477 99.8594 492.289 105.594 492.289 112.875V116.016H456.102V117.094C456.102 122.844 457.742 127.641 461.023 131.484C464.336 135.297 468.492 137.203 473.492 137.203C476.492 137.203 479.133 136.656 481.414 135.562C483.727 134.469 485.82 132.719 487.695 130.312L491.211 132.984C487.086 138.953 481.102 141.938 473.258 141.938ZM472.227 94.125C468.008 94.125 464.445 95.6719 461.539 98.7656C458.664 101.859 456.914 106.016 456.289 111.234H486.711V110.625C486.555 105.75 485.164 101.781 482.539 98.7188C479.914 95.6562 476.477 94.125 472.227 94.125ZM500.961 115.172C500.961 107.297 502.711 101.031 506.211 96.375C509.742 91.6875 514.523 89.3438 520.555 89.3438C527.398 89.3438 532.617 92.0469 536.211 97.4531V69H541.789V141H536.539L536.305 134.25C532.711 139.375 527.43 141.938 520.461 141.938C514.617 141.938 509.898 139.594 506.305 134.906C502.742 130.188 500.961 123.828 500.961 115.828V115.172ZM506.633 116.156C506.633 122.625 507.93 127.734 510.523 131.484C513.117 135.203 516.773 137.062 521.492 137.062C528.398 137.062 533.305 134.016 536.211 127.922V104.109C533.305 97.5156 528.43 94.2188 521.586 94.2188C516.867 94.2188 513.195 96.0781 510.57 99.7969C507.945 103.484 506.633 108.938 506.633 116.156Z" fill="#02013D"/>
<path d="M20.5 92C5.89568 118.907 37.9572 148.865 64 163C90.0428 177.135 132.676 198.217 147.281 171.309C161.885 144.402 166.145 52.7948 140.102 38.6597C114.059 24.5246 35.1043 65.0927 20.5 92Z" fill="#DF3737"/>
<rect x="51" y="94" width="90" height="30" rx="5" fill="white"/>
<rect x="81" y="154" width="90" height="30" rx="5" transform="rotate(-90 81 154)" fill="white"/>
</svg>
