<svg width="70" height="70" viewBox="0 0 70 70" fill="none" xmlns="http://www.w3.org/2000/svg">
<path d="M51.4996 54.4163C47.1236 58.7922 41.1885 61.2506 35 61.2506C28.8114 61.2506 22.8764 58.7922 18.5004 54.4163C14.1244 50.0403 11.666 44.1052 11.666 37.9167C11.666 31.7281 14.1244 25.793 18.5004 21.4171C18.5004 21.4171 20.4166 26.25 26.25 29.1667C26.25 23.3333 27.7083 14.5833 34.9591 8.75C40.8333 14.5833 46.9291 16.8496 51.4966 21.4171C53.6671 23.5812 55.3884 26.153 56.5617 28.9846C57.7349 31.8161 58.337 34.8517 58.3333 37.9167C58.3374 40.9815 57.7358 44.0169 56.563 46.8484C55.3903 49.68 53.6695 52.2519 51.4996 54.4163V54.4163Z" fill="#F4900C"/>
<path d="M28.8137 47.0196C29.8299 48.036 31.0807 48.7865 32.4558 49.2046C33.8308 49.6228 35.2877 49.6959 36.6976 49.4173C38.1076 49.1388 39.4273 48.5172 40.54 47.6075C41.6527 46.6979 42.5242 45.5281 43.0774 44.2016C43.6307 42.8752 43.8487 41.4329 43.7122 40.0021C43.5757 38.5714 43.0889 37.1964 42.2947 35.9985C41.5006 34.8006 40.4236 33.8167 39.159 33.1339C37.8943 32.451 36.481 32.0902 35.0438 32.0833L32.0833 40.8333H26.25C26.25 43.0733 27.1046 45.3133 28.8137 47.0196Z" fill="#FFCC4D"/>
</svg>
